<?xml version="1.0" encoding="utf-8"?>
<!-- Generator: Adobe Illustrator 23.0.3, SVG Export Plug-In . SVG Version: 6.00 Build 0)  -->
<svg version="1.1" id="Layer_1" xmlns="http://www.w3.org/2000/svg" xmlns:xlink="http://www.w3.org/1999/xlink" x="0px" y="0px"
	 viewBox="0 0 505 1256" style="enable-background:new 0 0 505 1256;" xml:space="preserve">
<style type="text/css">
	.st0{fill:#FFFFFF;}
	.st1{font-family:'MyriadPro-Regular';}
	.st2{font-size:48px;}
</style>
<g id="_x34_0">
	<g>
		<g>
			<path class="st0" d="M28,177.5c-5.24,0-9.5-4.26-9.5-9.5v-59c0-5.24,4.26-9.5,9.5-9.5h59c5.24,0,9.5,4.26,9.5,9.5v59
				c0,5.24-4.26,9.5-9.5,9.5H28z"/>
			<path d="M87,100c4.96,0,9,4.04,9,9v59c0,4.96-4.04,9-9,9H28c-4.96,0-9-4.04-9-9v-59c0-4.96,4.04-9,9-9H87 M87,99H28
				c-5.52,0-10,4.48-10,10v59c0,5.52,4.48,10,10,10h59c5.52,0,10-4.48,10-10v-59C97,103.48,92.52,99,87,99L87,99z"/>
		</g>
	</g>
	<g>
		<rect x="18.5" y="173.5" class="st0" width="78" height="13"/>
		<path d="M96,174v12H19v-12H96 M97,173H18v14h79V173L97,173z"/>
	</g>
	<g>
		<rect x="88.5" y="132.5" class="st0" width="17" height="54"/>
		<path d="M105,133v53H89v-53H105 M106,132H88v55h18V132L106,132z"/>
	</g>
	<g>
		<rect x="9.5" y="132.5" class="st0" width="17" height="54"/>
		<path d="M26,133v53H10v-53H26 M27,132H9v55h18V132L27,132z"/>
	</g>
</g>
<g id="_x33_9_1_">
	<g>
		<g>
			<path class="st0" d="M141,177.5c-5.24,0-9.5-4.26-9.5-9.5v-59c0-5.24,4.26-9.5,9.5-9.5h59c5.24,0,9.5,4.26,9.5,9.5v59
				c0,5.24-4.26,9.5-9.5,9.5H141z"/>
			<path d="M200,100c4.96,0,9,4.04,9,9v59c0,4.96-4.04,9-9,9h-59c-4.96,0-9-4.04-9-9v-59c0-4.96,4.04-9,9-9H200 M200,99h-59
				c-5.52,0-10,4.48-10,10v59c0,5.52,4.48,10,10,10h59c5.52,0,10-4.48,10-10v-59C210,103.48,205.52,99,200,99L200,99z"/>
		</g>
	</g>
	<g>
		<rect x="131.5" y="173.5" class="st0" width="78" height="13"/>
		<path d="M209,174v12h-77v-12H209 M210,173h-79v14h79V173L210,173z"/>
	</g>
	<g>
		<rect x="201.5" y="132.5" class="st0" width="17" height="54"/>
		<path d="M218,133v53h-16v-53H218 M219,132h-18v55h18V132L219,132z"/>
	</g>
	<g>
		<rect x="122.5" y="132.5" class="st0" width="17" height="54"/>
		<path d="M139,133v53h-16v-53H139 M140,132h-18v55h18V132L140,132z"/>
	</g>
</g>
<g id="_x33_8">
	<g>
		<g>
			<path class="st0" d="M28,289.5c-5.24,0-9.5-4.26-9.5-9.5v-59c0-5.24,4.26-9.5,9.5-9.5h59c5.24,0,9.5,4.26,9.5,9.5v59
				c0,5.24-4.26,9.5-9.5,9.5H28z"/>
			<path d="M87,212c4.96,0,9,4.04,9,9v59c0,4.96-4.04,9-9,9H28c-4.96,0-9-4.04-9-9v-59c0-4.96,4.04-9,9-9H87 M87,211H28
				c-5.52,0-10,4.48-10,10v59c0,5.52,4.48,10,10,10h59c5.52,0,10-4.48,10-10v-59C97,215.48,92.52,211,87,211L87,211z"/>
		</g>
	</g>
	<g>
		<rect x="18.5" y="285.5" class="st0" width="78" height="13"/>
		<path d="M96,286v12H19v-12H96 M97,285H18v14h79V285L97,285z"/>
	</g>
	<g>
		<rect x="88.5" y="244.5" class="st0" width="17" height="54"/>
		<path d="M105,245v53H89v-53H105 M106,244H88v55h18V244L106,244z"/>
	</g>
	<g>
		<rect x="9.5" y="244.5" class="st0" width="17" height="54"/>
		<path d="M26,245v53H10v-53H26 M27,244H9v55h18V244L27,244z"/>
	</g>
</g>
<g id="_x33_7">
	<g>
		<g>
			<path class="st0" d="M141,289.5c-5.24,0-9.5-4.26-9.5-9.5v-59c0-5.24,4.26-9.5,9.5-9.5h59c5.24,0,9.5,4.26,9.5,9.5v59
				c0,5.24-4.26,9.5-9.5,9.5H141z"/>
			<path d="M200,212c4.96,0,9,4.04,9,9v59c0,4.96-4.04,9-9,9h-59c-4.96,0-9-4.04-9-9v-59c0-4.96,4.04-9,9-9H200 M200,211h-59
				c-5.52,0-10,4.48-10,10v59c0,5.52,4.48,10,10,10h59c5.52,0,10-4.48,10-10v-59C210,215.48,205.52,211,200,211L200,211z"/>
		</g>
	</g>
	<g>
		<rect x="131.5" y="285.5" class="st0" width="78" height="13"/>
		<path d="M209,286v12h-77v-12H209 M210,285h-79v14h79V285L210,285z"/>
	</g>
	<g>
		<rect x="201.5" y="244.5" class="st0" width="17" height="54"/>
		<path d="M218,245v53h-16v-53H218 M219,244h-18v55h18V244L219,244z"/>
	</g>
	<g>
		<rect x="122.5" y="244.5" class="st0" width="17" height="54"/>
		<path d="M139,245v53h-16v-53H139 M140,244h-18v55h18V244L140,244z"/>
	</g>
</g>
<g id="_x33_6">
	<g>
		<g>
			<path class="st0" d="M28,533.5c-5.24,0-9.5-4.26-9.5-9.5v-59c0-5.24,4.26-9.5,9.5-9.5h59c5.24,0,9.5,4.26,9.5,9.5v59
				c0,5.24-4.26,9.5-9.5,9.5H28z"/>
			<path d="M87,456c4.96,0,9,4.04,9,9v59c0,4.96-4.04,9-9,9H28c-4.96,0-9-4.04-9-9v-59c0-4.96,4.04-9,9-9H87 M87,455H28
				c-5.52,0-10,4.48-10,10v59c0,5.52,4.48,10,10,10h59c5.52,0,10-4.48,10-10v-59C97,459.48,92.52,455,87,455L87,455z"/>
		</g>
	</g>
	<g>
		<rect x="18.5" y="529.5" class="st0" width="78" height="13"/>
		<path d="M96,530v12H19v-12H96 M97,529H18v14h79V529L97,529z"/>
	</g>
	<g>
		<rect x="88.5" y="488.5" class="st0" width="17" height="54"/>
		<path d="M105,489v53H89v-53H105 M106,488H88v55h18V488L106,488z"/>
	</g>
	<g>
		<rect x="9.5" y="488.5" class="st0" width="17" height="54"/>
		<path d="M26,489v53H10v-53H26 M27,488H9v55h18V488L27,488z"/>
	</g>
</g>
<g id="_x33_5">
	<g>
		<g>
			<path class="st0" d="M141,411.5c-5.24,0-9.5-4.26-9.5-9.5v-59c0-5.24,4.26-9.5,9.5-9.5h59c5.24,0,9.5,4.26,9.5,9.5v59
				c0,5.24-4.26,9.5-9.5,9.5H141z"/>
			<path d="M200,334c4.96,0,9,4.04,9,9v59c0,4.96-4.04,9-9,9h-59c-4.96,0-9-4.04-9-9v-59c0-4.96,4.04-9,9-9H200 M200,333h-59
				c-5.52,0-10,4.48-10,10v59c0,5.52,4.48,10,10,10h59c5.52,0,10-4.48,10-10v-59C210,337.48,205.52,333,200,333L200,333z"/>
		</g>
	</g>
	<g>
		<rect x="131.5" y="407.5" class="st0" width="78" height="13"/>
		<path d="M209,408v12h-77v-12H209 M210,407h-79v14h79V407L210,407z"/>
	</g>
	<g>
		<rect x="201.5" y="366.5" class="st0" width="17" height="54"/>
		<path d="M218,367v53h-16v-53H218 M219,366h-18v55h18V366L219,366z"/>
	</g>
	<g>
		<rect x="122.5" y="366.5" class="st0" width="17" height="54"/>
		<path d="M139,367v53h-16v-53H139 M140,366h-18v55h18V366L140,366z"/>
	</g>
</g>
<g id="_x33_4">
	<g>
		<g>
			<path class="st0" d="M28,411.5c-5.24,0-9.5-4.26-9.5-9.5v-59c0-5.24,4.26-9.5,9.5-9.5h59c5.24,0,9.5,4.26,9.5,9.5v59
				c0,5.24-4.26,9.5-9.5,9.5H28z"/>
			<path d="M87,334c4.96,0,9,4.04,9,9v59c0,4.96-4.04,9-9,9H28c-4.96,0-9-4.04-9-9v-59c0-4.96,4.04-9,9-9H87 M87,333H28
				c-5.52,0-10,4.48-10,10v59c0,5.52,4.48,10,10,10h59c5.52,0,10-4.48,10-10v-59C97,337.48,92.52,333,87,333L87,333z"/>
		</g>
	</g>
	<g>
		<rect x="18.5" y="407.5" class="st0" width="78" height="13"/>
		<path d="M96,408v12H19v-12H96 M97,407H18v14h79V407L97,407z"/>
	</g>
	<g>
		<rect x="88.5" y="366.5" class="st0" width="17" height="54"/>
		<path d="M105,367v53H89v-53H105 M106,366H88v55h18V366L106,366z"/>
	</g>
	<g>
		<rect x="9.5" y="366.5" class="st0" width="17" height="54"/>
		<path d="M26,367v53H10v-53H26 M27,366H9v55h18V366L27,366z"/>
	</g>
</g>
<g id="_x33_3">
	<g>
		<g>
			<path class="st0" d="M141,533.5c-5.24,0-9.5-4.26-9.5-9.5v-59c0-5.24,4.26-9.5,9.5-9.5h59c5.24,0,9.5,4.26,9.5,9.5v59
				c0,5.24-4.26,9.5-9.5,9.5H141z"/>
			<path d="M200,456c4.96,0,9,4.04,9,9v59c0,4.96-4.04,9-9,9h-59c-4.96,0-9-4.04-9-9v-59c0-4.96,4.04-9,9-9H200 M200,455h-59
				c-5.52,0-10,4.48-10,10v59c0,5.52,4.48,10,10,10h59c5.52,0,10-4.48,10-10v-59C210,459.48,205.52,455,200,455L200,455z"/>
		</g>
	</g>
	<g>
		<rect x="131.5" y="529.5" class="st0" width="78" height="13"/>
		<path d="M209,530v12h-77v-12H209 M210,529h-79v14h79V529L210,529z"/>
	</g>
	<g>
		<rect x="201.5" y="488.5" class="st0" width="17" height="54"/>
		<path d="M218,489v53h-16v-53H218 M219,488h-18v55h18V488L219,488z"/>
	</g>
	<g>
		<rect x="122.5" y="488.5" class="st0" width="17" height="54"/>
		<path d="M139,489v53h-16v-53H139 M140,488h-18v55h18V488L140,488z"/>
	</g>
</g>
<g id="_x33_2">
	<g>
		<g>
			<path class="st0" d="M141,655.5c-5.24,0-9.5-4.26-9.5-9.5v-59c0-5.24,4.26-9.5,9.5-9.5h59c5.24,0,9.5,4.26,9.5,9.5v59
				c0,5.24-4.26,9.5-9.5,9.5H141z"/>
			<path d="M200,578c4.96,0,9,4.04,9,9v59c0,4.96-4.04,9-9,9h-59c-4.96,0-9-4.04-9-9v-59c0-4.96,4.04-9,9-9H200 M200,577h-59
				c-5.52,0-10,4.48-10,10v59c0,5.52,4.48,10,10,10h59c5.52,0,10-4.48,10-10v-59C210,581.48,205.52,577,200,577L200,577z"/>
		</g>
	</g>
	<g>
		<rect x="131.5" y="651.5" class="st0" width="78" height="13"/>
		<path d="M209,652v12h-77v-12H209 M210,651h-79v14h79V651L210,651z"/>
	</g>
	<g>
		<rect x="201.5" y="610.5" class="st0" width="17" height="54"/>
		<path d="M218,611v53h-16v-53H218 M219,610h-18v55h18V610L219,610z"/>
	</g>
	<g>
		<rect x="122.5" y="610.5" class="st0" width="17" height="54"/>
		<path d="M139,611v53h-16v-53H139 M140,610h-18v55h18V610L140,610z"/>
	</g>
</g>
<g id="_x33_1">
	<g>
		<g>
			<path class="st0" d="M28,655.5c-5.24,0-9.5-4.26-9.5-9.5v-59c0-5.24,4.26-9.5,9.5-9.5h59c5.24,0,9.5,4.26,9.5,9.5v59
				c0,5.24-4.26,9.5-9.5,9.5H28z"/>
			<path d="M87,578c4.96,0,9,4.04,9,9v59c0,4.96-4.04,9-9,9H28c-4.96,0-9-4.04-9-9v-59c0-4.96,4.04-9,9-9H87 M87,577H28
				c-5.52,0-10,4.48-10,10v59c0,5.52,4.48,10,10,10h59c5.52,0,10-4.48,10-10v-59C97,581.48,92.52,577,87,577L87,577z"/>
		</g>
	</g>
	<g>
		<rect x="18.5" y="651.5" class="st0" width="78" height="13"/>
		<path d="M96,652v12H19v-12H96 M97,651H18v14h79V651L97,651z"/>
	</g>
	<g>
		<rect x="88.5" y="610.5" class="st0" width="17" height="54"/>
		<path d="M105,611v53H89v-53H105 M106,610H88v55h18V610L106,610z"/>
	</g>
	<g>
		<rect x="9.5" y="610.5" class="st0" width="17" height="54"/>
		<path d="M26,611v53H10v-53H26 M27,610H9v55h18V610L27,610z"/>
	</g>
</g>
<g id="_x33_0">
	<g>
		<g>
			<path class="st0" d="M141,778.5c-5.24,0-9.5-4.26-9.5-9.5v-59c0-5.24,4.26-9.5,9.5-9.5h59c5.24,0,9.5,4.26,9.5,9.5v59
				c0,5.24-4.26,9.5-9.5,9.5H141z"/>
			<path d="M200,701c4.96,0,9,4.04,9,9v59c0,4.96-4.04,9-9,9h-59c-4.96,0-9-4.04-9-9v-59c0-4.96,4.04-9,9-9H200 M200,700h-59
				c-5.52,0-10,4.48-10,10v59c0,5.52,4.48,10,10,10h59c5.52,0,10-4.48,10-10v-59C210,704.48,205.52,700,200,700L200,700z"/>
		</g>
	</g>
	<g>
		<rect x="131.5" y="774.5" class="st0" width="78" height="13"/>
		<path d="M209,775v12h-77v-12H209 M210,774h-79v14h79V774L210,774z"/>
	</g>
	<g>
		<rect x="201.5" y="733.5" class="st0" width="17" height="54"/>
		<path d="M218,734v53h-16v-53H218 M219,733h-18v55h18V733L219,733z"/>
	</g>
	<g>
		<rect x="122.5" y="733.5" class="st0" width="17" height="54"/>
		<path d="M139,734v53h-16v-53H139 M140,733h-18v55h18V733L140,733z"/>
	</g>
</g>
<g id="_x32_9">
	<g>
		<g>
			<path class="st0" d="M28,777.5c-5.24,0-9.5-4.26-9.5-9.5v-59c0-5.24,4.26-9.5,9.5-9.5h59c5.24,0,9.5,4.26,9.5,9.5v59
				c0,5.24-4.26,9.5-9.5,9.5H28z"/>
			<path d="M87,700c4.96,0,9,4.04,9,9v59c0,4.96-4.04,9-9,9H28c-4.96,0-9-4.04-9-9v-59c0-4.96,4.04-9,9-9H87 M87,699H28
				c-5.52,0-10,4.48-10,10v59c0,5.52,4.48,10,10,10h59c5.52,0,10-4.48,10-10v-59C97,703.48,92.52,699,87,699L87,699z"/>
		</g>
	</g>
	<g>
		<rect x="18.5" y="773.5" class="st0" width="78" height="13"/>
		<path d="M96,774v12H19v-12H96 M97,773H18v14h79V773L97,773z"/>
	</g>
	<g>
		<rect x="88.5" y="732.5" class="st0" width="17" height="54"/>
		<path d="M105,733v53H89v-53H105 M106,732H88v55h18V732L106,732z"/>
	</g>
	<g>
		<rect x="9.5" y="732.5" class="st0" width="17" height="54"/>
		<path d="M26,733v53H10v-53H26 M27,732H9v55h18V732L27,732z"/>
	</g>
</g>
<g id="_x32_8">
	<g>
		<g>
			<path class="st0" d="M28,889.5c-5.24,0-9.5-4.26-9.5-9.5v-59c0-5.24,4.26-9.5,9.5-9.5h59c5.24,0,9.5,4.26,9.5,9.5v59
				c0,5.24-4.26,9.5-9.5,9.5H28z"/>
			<path d="M87,812c4.96,0,9,4.04,9,9v59c0,4.96-4.04,9-9,9H28c-4.96,0-9-4.04-9-9v-59c0-4.96,4.04-9,9-9H87 M87,811H28
				c-5.52,0-10,4.48-10,10v59c0,5.52,4.48,10,10,10h59c5.52,0,10-4.48,10-10v-59C97,815.48,92.52,811,87,811L87,811z"/>
		</g>
	</g>
	<g>
		<rect x="18.5" y="885.5" class="st0" width="78" height="13"/>
		<path d="M96,886v12H19v-12H96 M97,885H18v14h79V885L97,885z"/>
	</g>
	<g>
		<rect x="88.5" y="844.5" class="st0" width="17" height="54"/>
		<path d="M105,845v53H89v-53H105 M106,844H88v55h18V844L106,844z"/>
	</g>
	<g>
		<rect x="9.5" y="844.5" class="st0" width="17" height="54"/>
		<path d="M26,845v53H10v-53H26 M27,844H9v55h18V844L27,844z"/>
	</g>
</g>
<g id="_x32_7">
	<g>
		<g>
			<path class="st0" d="M141,889.5c-5.24,0-9.5-4.26-9.5-9.5v-59c0-5.24,4.26-9.5,9.5-9.5h59c5.24,0,9.5,4.26,9.5,9.5v59
				c0,5.24-4.26,9.5-9.5,9.5H141z"/>
			<path d="M200,812c4.96,0,9,4.04,9,9v59c0,4.96-4.04,9-9,9h-59c-4.96,0-9-4.04-9-9v-59c0-4.96,4.04-9,9-9H200 M200,811h-59
				c-5.52,0-10,4.48-10,10v59c0,5.52,4.48,10,10,10h59c5.52,0,10-4.48,10-10v-59C210,815.48,205.52,811,200,811L200,811z"/>
		</g>
	</g>
	<g>
		<rect x="131.5" y="885.5" class="st0" width="78" height="13"/>
		<path d="M209,886v12h-77v-12H209 M210,885h-79v14h79V885L210,885z"/>
	</g>
	<g>
		<rect x="201.5" y="844.5" class="st0" width="17" height="54"/>
		<path d="M218,845v53h-16v-53H218 M219,844h-18v55h18V844L219,844z"/>
	</g>
	<g>
		<rect x="122.5" y="844.5" class="st0" width="17" height="54"/>
		<path d="M139,845v53h-16v-53H139 M140,844h-18v55h18V844L140,844z"/>
	</g>
</g>
<g id="_x32_6">
	<g>
		<g>
			<path class="st0" d="M141,1001.5c-5.24,0-9.5-4.26-9.5-9.5v-59c0-5.24,4.26-9.5,9.5-9.5h59c5.24,0,9.5,4.26,9.5,9.5v59
				c0,5.24-4.26,9.5-9.5,9.5H141z"/>
			<path d="M200,924c4.96,0,9,4.04,9,9v59c0,4.96-4.04,9-9,9h-59c-4.96,0-9-4.04-9-9v-59c0-4.96,4.04-9,9-9H200 M200,923h-59
				c-5.52,0-10,4.48-10,10v59c0,5.52,4.48,10,10,10h59c5.52,0,10-4.48,10-10v-59C210,927.48,205.52,923,200,923L200,923z"/>
		</g>
	</g>
	<g>
		<rect x="131.5" y="997.5" class="st0" width="78" height="13"/>
		<path d="M209,998v12h-77v-12H209 M210,997h-79v14h79V997L210,997z"/>
	</g>
	<g>
		<rect x="201.5" y="956.5" class="st0" width="17" height="54"/>
		<path d="M218,957v53h-16v-53H218 M219,956h-18v55h18V956L219,956z"/>
	</g>
	<g>
		<rect x="122.5" y="956.5" class="st0" width="17" height="54"/>
		<path d="M139,957v53h-16v-53H139 M140,956h-18v55h18V956L140,956z"/>
	</g>
</g>
<g id="_x32_5">
	<g>
		<g>
			<path class="st0" d="M28,1001.5c-5.24,0-9.5-4.26-9.5-9.5v-59c0-5.24,4.26-9.5,9.5-9.5h59c5.24,0,9.5,4.26,9.5,9.5v59
				c0,5.24-4.26,9.5-9.5,9.5H28z"/>
			<path d="M87,924c4.96,0,9,4.04,9,9v59c0,4.96-4.04,9-9,9H28c-4.96,0-9-4.04-9-9v-59c0-4.96,4.04-9,9-9H87 M87,923H28
				c-5.52,0-10,4.48-10,10v59c0,5.52,4.48,10,10,10h59c5.52,0,10-4.48,10-10v-59C97,927.48,92.52,923,87,923L87,923z"/>
		</g>
	</g>
	<g>
		<rect x="18.5" y="997.5" class="st0" width="78" height="13"/>
		<path d="M96,998v12H19v-12H96 M97,997H18v14h79V997L97,997z"/>
	</g>
	<g>
		<rect x="88.5" y="956.5" class="st0" width="17" height="54"/>
		<path d="M105,957v53H89v-53H105 M106,956H88v55h18V956L106,956z"/>
	</g>
	<g>
		<rect x="9.5" y="956.5" class="st0" width="17" height="54"/>
		<path d="M26,957v53H10v-53H26 M27,956H9v55h18V956L27,956z"/>
	</g>
</g>
<g id="_x32_4">
	<g>
		<g>
			<path class="st0" d="M141,1113.5c-5.24,0-9.5-4.26-9.5-9.5v-59c0-5.24,4.26-9.5,9.5-9.5h59c5.24,0,9.5,4.26,9.5,9.5v59
				c0,5.24-4.26,9.5-9.5,9.5H141z"/>
			<path d="M200,1036c4.96,0,9,4.04,9,9v59c0,4.96-4.04,9-9,9h-59c-4.96,0-9-4.04-9-9v-59c0-4.96,4.04-9,9-9H200 M200,1035h-59
				c-5.52,0-10,4.48-10,10v59c0,5.52,4.48,10,10,10h59c5.52,0,10-4.48,10-10v-59C210,1039.48,205.52,1035,200,1035L200,1035z"/>
		</g>
	</g>
	<g>
		<rect x="131.5" y="1109.5" class="st0" width="78" height="13"/>
		<path d="M209,1110v12h-77v-12H209 M210,1109h-79v14h79V1109L210,1109z"/>
	</g>
	<g>
		<rect x="201.5" y="1068.5" class="st0" width="17" height="54"/>
		<path d="M218,1069v53h-16v-53H218 M219,1068h-18v55h18V1068L219,1068z"/>
	</g>
	<g>
		<rect x="122.5" y="1068.5" class="st0" width="17" height="54"/>
		<path d="M139,1069v53h-16v-53H139 M140,1068h-18v55h18V1068L140,1068z"/>
	</g>
</g>
<g id="_x32_3">
	<g>
		<g>
			<path class="st0" d="M28,1113.5c-5.24,0-9.5-4.26-9.5-9.5v-59c0-5.24,4.26-9.5,9.5-9.5h59c5.24,0,9.5,4.26,9.5,9.5v59
				c0,5.24-4.26,9.5-9.5,9.5H28z"/>
			<path d="M87,1036c4.96,0,9,4.04,9,9v59c0,4.96-4.04,9-9,9H28c-4.96,0-9-4.04-9-9v-59c0-4.96,4.04-9,9-9H87 M87,1035H28
				c-5.52,0-10,4.48-10,10v59c0,5.52,4.48,10,10,10h59c5.52,0,10-4.48,10-10v-59C97,1039.48,92.52,1035,87,1035L87,1035z"/>
		</g>
	</g>
	<g>
		<rect x="18.5" y="1109.5" class="st0" width="78" height="13"/>
		<path d="M96,1110v12H19v-12H96 M97,1109H18v14h79V1109L97,1109z"/>
	</g>
	<g>
		<rect x="88.5" y="1068.5" class="st0" width="17" height="54"/>
		<path d="M105,1069v53H89v-53H105 M106,1068H88v55h18V1068L106,1068z"/>
	</g>
	<g>
		<rect x="9.5" y="1068.5" class="st0" width="17" height="54"/>
		<path d="M26,1069v53H10v-53H26 M27,1068H9v55h18V1068L27,1068z"/>
	</g>
</g>
<g id="_x32_2">
	<g>
		<g>
			<path class="st0" d="M144,1225.5c-5.24,0-9.5-4.26-9.5-9.5v-59c0-5.24,4.26-9.5,9.5-9.5h59c5.24,0,9.5,4.26,9.5,9.5v59
				c0,5.24-4.26,9.5-9.5,9.5H144z"/>
			<path d="M203,1148c4.96,0,9,4.04,9,9v59c0,4.96-4.04,9-9,9h-59c-4.96,0-9-4.04-9-9v-59c0-4.96,4.04-9,9-9H203 M203,1147h-59
				c-5.52,0-10,4.48-10,10v59c0,5.52,4.48,10,10,10h59c5.52,0,10-4.48,10-10v-59C213,1151.48,208.52,1147,203,1147L203,1147z"/>
		</g>
	</g>
	<g>
		<rect x="134.5" y="1221.5" class="st0" width="78" height="13"/>
		<path d="M212,1222v12h-77v-12H212 M213,1221h-79v14h79V1221L213,1221z"/>
	</g>
	<g>
		<rect x="204.5" y="1180.5" class="st0" width="17" height="54"/>
		<path d="M221,1181v53h-16v-53H221 M222,1180h-18v55h18V1180L222,1180z"/>
	</g>
	<g>
		<rect x="125.5" y="1180.5" class="st0" width="17" height="54"/>
		<path d="M142,1181v53h-16v-53H142 M143,1180h-18v55h18V1180L143,1180z"/>
	</g>
</g>
<g id="_x32_1">
	<g>
		<g>
			<path class="st0" d="M31,1225.5c-5.24,0-9.5-4.26-9.5-9.5v-59c0-5.24,4.26-9.5,9.5-9.5h59c5.24,0,9.5,4.26,9.5,9.5v59
				c0,5.24-4.26,9.5-9.5,9.5H31z"/>
			<path d="M90,1148c4.96,0,9,4.04,9,9v59c0,4.96-4.04,9-9,9H31c-4.96,0-9-4.04-9-9v-59c0-4.96,4.04-9,9-9H90 M90,1147H31
				c-5.52,0-10,4.48-10,10v59c0,5.52,4.48,10,10,10h59c5.52,0,10-4.48,10-10v-59C100,1151.48,95.52,1147,90,1147L90,1147z"/>
		</g>
	</g>
	<g>
		<rect x="21.5" y="1221.5" class="st0" width="78" height="13"/>
		<path d="M99,1222v12H22v-12H99 M100,1221H21v14h79V1221L100,1221z"/>
	</g>
	<g>
		<rect x="91.5" y="1180.5" class="st0" width="17" height="54"/>
		<path d="M108,1181v53H92v-53H108 M109,1180H91v55h18V1180L109,1180z"/>
	</g>
	<g>
		<rect x="12.5" y="1180.5" class="st0" width="17" height="54"/>
		<path d="M29,1181v53H13v-53H29 M30,1180H12v55h18V1180L30,1180z"/>
	</g>
</g>
<g id="_x32_0">
	<g>
		<g>
			<path class="st0" d="M301,175.5c-5.24,0-9.5-4.26-9.5-9.5v-59c0-5.24,4.26-9.5,9.5-9.5h59c5.24,0,9.5,4.26,9.5,9.5v59
				c0,5.24-4.26,9.5-9.5,9.5H301z"/>
			<path d="M360,98c4.96,0,9,4.04,9,9v59c0,4.96-4.04,9-9,9h-59c-4.96,0-9-4.04-9-9v-59c0-4.96,4.04-9,9-9H360 M360,97h-59
				c-5.52,0-10,4.48-10,10v59c0,5.52,4.48,10,10,10h59c5.52,0,10-4.48,10-10v-59C370,101.48,365.52,97,360,97L360,97z"/>
		</g>
	</g>
	<g>
		<rect x="291.5" y="171.5" class="st0" width="78" height="13"/>
		<path d="M369,172v12h-77v-12H369 M370,171h-79v14h79V171L370,171z"/>
	</g>
	<g>
		<rect x="361.5" y="130.5" class="st0" width="17" height="54"/>
		<path d="M378,131v53h-16v-53H378 M379,130h-18v55h18V130L379,130z"/>
	</g>
	<g>
		<rect x="282.5" y="130.5" class="st0" width="17" height="54"/>
		<path d="M299,131v53h-16v-53H299 M300,130h-18v55h18V130L300,130z"/>
	</g>
</g>
<g id="_x31_9">
	<g>
		<g>
			<path class="st0" d="M414,175.5c-5.24,0-9.5-4.26-9.5-9.5v-59c0-5.24,4.26-9.5,9.5-9.5h59c5.24,0,9.5,4.26,9.5,9.5v59
				c0,5.24-4.26,9.5-9.5,9.5H414z"/>
			<path d="M473,98c4.96,0,9,4.04,9,9v59c0,4.96-4.04,9-9,9h-59c-4.96,0-9-4.04-9-9v-59c0-4.96,4.04-9,9-9H473 M473,97h-59
				c-5.52,0-10,4.48-10,10v59c0,5.52,4.48,10,10,10h59c5.52,0,10-4.48,10-10v-59C483,101.48,478.52,97,473,97L473,97z"/>
		</g>
	</g>
	<g>
		<rect x="404.5" y="171.5" class="st0" width="78" height="13"/>
		<path d="M482,172v12h-77v-12H482 M483,171h-79v14h79V171L483,171z"/>
	</g>
	<g>
		<rect x="474.5" y="130.5" class="st0" width="17" height="54"/>
		<path d="M491,131v53h-16v-53H491 M492,130h-18v55h18V130L492,130z"/>
	</g>
	<g>
		<rect x="395.5" y="130.5" class="st0" width="17" height="54"/>
		<path d="M412,131v53h-16v-53H412 M413,130h-18v55h18V130L413,130z"/>
	</g>
</g>
<g id="_x31_8">
	<g>
		<g>
			<path class="st0" d="M301,287.5c-5.24,0-9.5-4.26-9.5-9.5v-59c0-5.24,4.26-9.5,9.5-9.5h59c5.24,0,9.5,4.26,9.5,9.5v59
				c0,5.24-4.26,9.5-9.5,9.5H301z"/>
			<path d="M360,210c4.96,0,9,4.04,9,9v59c0,4.96-4.04,9-9,9h-59c-4.96,0-9-4.04-9-9v-59c0-4.96,4.04-9,9-9H360 M360,209h-59
				c-5.52,0-10,4.48-10,10v59c0,5.52,4.48,10,10,10h59c5.52,0,10-4.48,10-10v-59C370,213.48,365.52,209,360,209L360,209z"/>
		</g>
	</g>
	<g>
		<rect x="291.5" y="283.5" class="st0" width="78" height="13"/>
		<path d="M369,284v12h-77v-12H369 M370,283h-79v14h79V283L370,283z"/>
	</g>
	<g>
		<rect x="361.5" y="242.5" class="st0" width="17" height="54"/>
		<path d="M378,243v53h-16v-53H378 M379,242h-18v55h18V242L379,242z"/>
	</g>
	<g>
		<rect x="282.5" y="242.5" class="st0" width="17" height="54"/>
		<path d="M299,243v53h-16v-53H299 M300,242h-18v55h18V242L300,242z"/>
	</g>
</g>
<g id="_x31_7">
	<g>
		<g>
			<path class="st0" d="M414,287.5c-5.24,0-9.5-4.26-9.5-9.5v-59c0-5.24,4.26-9.5,9.5-9.5h59c5.24,0,9.5,4.26,9.5,9.5v59
				c0,5.24-4.26,9.5-9.5,9.5H414z"/>
			<path d="M473,210c4.96,0,9,4.04,9,9v59c0,4.96-4.04,9-9,9h-59c-4.96,0-9-4.04-9-9v-59c0-4.96,4.04-9,9-9H473 M473,209h-59
				c-5.52,0-10,4.48-10,10v59c0,5.52,4.48,10,10,10h59c5.52,0,10-4.48,10-10v-59C483,213.48,478.52,209,473,209L473,209z"/>
		</g>
	</g>
	<g>
		<rect x="404.5" y="283.5" class="st0" width="78" height="13"/>
		<path d="M482,284v12h-77v-12H482 M483,283h-79v14h79V283L483,283z"/>
	</g>
	<g>
		<rect x="474.5" y="242.5" class="st0" width="17" height="54"/>
		<path d="M491,243v53h-16v-53H491 M492,242h-18v55h18V242L492,242z"/>
	</g>
	<g>
		<rect x="395.5" y="242.5" class="st0" width="17" height="54"/>
		<path d="M412,243v53h-16v-53H412 M413,242h-18v55h18V242L413,242z"/>
	</g>
</g>
<g id="_x31_6">
	<g>
		<g>
			<path class="st0" d="M301,531.5c-5.24,0-9.5-4.26-9.5-9.5v-59c0-5.24,4.26-9.5,9.5-9.5h59c5.24,0,9.5,4.26,9.5,9.5v59
				c0,5.24-4.26,9.5-9.5,9.5H301z"/>
			<path d="M360,454c4.96,0,9,4.04,9,9v59c0,4.96-4.04,9-9,9h-59c-4.96,0-9-4.04-9-9v-59c0-4.96,4.04-9,9-9H360 M360,453h-59
				c-5.52,0-10,4.48-10,10v59c0,5.52,4.48,10,10,10h59c5.52,0,10-4.48,10-10v-59C370,457.48,365.52,453,360,453L360,453z"/>
		</g>
	</g>
	<g>
		<rect x="291.5" y="527.5" class="st0" width="78" height="13"/>
		<path d="M369,528v12h-77v-12H369 M370,527h-79v14h79V527L370,527z"/>
	</g>
	<g>
		<rect x="361.5" y="486.5" class="st0" width="17" height="54"/>
		<path d="M378,487v53h-16v-53H378 M379,486h-18v55h18V486L379,486z"/>
	</g>
	<g>
		<rect x="282.5" y="486.5" class="st0" width="17" height="54"/>
		<path d="M299,487v53h-16v-53H299 M300,486h-18v55h18V486L300,486z"/>
	</g>
</g>
<g id="_x31_5">
	<g>
		<g>
			<path class="st0" d="M414,409.5c-5.24,0-9.5-4.26-9.5-9.5v-59c0-5.24,4.26-9.5,9.5-9.5h59c5.24,0,9.5,4.26,9.5,9.5v59
				c0,5.24-4.26,9.5-9.5,9.5H414z"/>
			<path d="M473,332c4.96,0,9,4.04,9,9v59c0,4.96-4.04,9-9,9h-59c-4.96,0-9-4.04-9-9v-59c0-4.96,4.04-9,9-9H473 M473,331h-59
				c-5.52,0-10,4.48-10,10v59c0,5.52,4.48,10,10,10h59c5.52,0,10-4.48,10-10v-59C483,335.48,478.52,331,473,331L473,331z"/>
		</g>
	</g>
	<g>
		<rect x="404.5" y="405.5" class="st0" width="78" height="13"/>
		<path d="M482,406v12h-77v-12H482 M483,405h-79v14h79V405L483,405z"/>
	</g>
	<g>
		<rect x="474.5" y="364.5" class="st0" width="17" height="54"/>
		<path d="M491,365v53h-16v-53H491 M492,364h-18v55h18V364L492,364z"/>
	</g>
	<g>
		<rect x="395.5" y="364.5" class="st0" width="17" height="54"/>
		<path d="M412,365v53h-16v-53H412 M413,364h-18v55h18V364L413,364z"/>
	</g>
</g>
<g id="_x31_4">
	<g>
		<g>
			<path class="st0" d="M301,409.5c-5.24,0-9.5-4.26-9.5-9.5v-59c0-5.24,4.26-9.5,9.5-9.5h59c5.24,0,9.5,4.26,9.5,9.5v59
				c0,5.24-4.26,9.5-9.5,9.5H301z"/>
			<path d="M360,332c4.96,0,9,4.04,9,9v59c0,4.96-4.04,9-9,9h-59c-4.96,0-9-4.04-9-9v-59c0-4.96,4.04-9,9-9H360 M360,331h-59
				c-5.52,0-10,4.48-10,10v59c0,5.52,4.48,10,10,10h59c5.52,0,10-4.48,10-10v-59C370,335.48,365.52,331,360,331L360,331z"/>
		</g>
	</g>
	<g>
		<rect x="291.5" y="405.5" class="st0" width="78" height="13"/>
		<path d="M369,406v12h-77v-12H369 M370,405h-79v14h79V405L370,405z"/>
	</g>
	<g>
		<rect x="361.5" y="364.5" class="st0" width="17" height="54"/>
		<path d="M378,365v53h-16v-53H378 M379,364h-18v55h18V364L379,364z"/>
	</g>
	<g>
		<rect x="282.5" y="364.5" class="st0" width="17" height="54"/>
		<path d="M299,365v53h-16v-53H299 M300,364h-18v55h18V364L300,364z"/>
	</g>
</g>
<g id="_x31_3">
	<g>
		<g>
			<path class="st0" d="M414,531.5c-5.24,0-9.5-4.26-9.5-9.5v-59c0-5.24,4.26-9.5,9.5-9.5h59c5.24,0,9.5,4.26,9.5,9.5v59
				c0,5.24-4.26,9.5-9.5,9.5H414z"/>
			<path d="M473,454c4.96,0,9,4.04,9,9v59c0,4.96-4.04,9-9,9h-59c-4.96,0-9-4.04-9-9v-59c0-4.96,4.04-9,9-9H473 M473,453h-59
				c-5.52,0-10,4.48-10,10v59c0,5.52,4.48,10,10,10h59c5.52,0,10-4.48,10-10v-59C483,457.48,478.52,453,473,453L473,453z"/>
		</g>
	</g>
	<g>
		<rect x="404.5" y="527.5" class="st0" width="78" height="13"/>
		<path d="M482,528v12h-77v-12H482 M483,527h-79v14h79V527L483,527z"/>
	</g>
	<g>
		<rect x="474.5" y="486.5" class="st0" width="17" height="54"/>
		<path d="M491,487v53h-16v-53H491 M492,486h-18v55h18V486L492,486z"/>
	</g>
	<g>
		<rect x="395.5" y="486.5" class="st0" width="17" height="54"/>
		<path d="M412,487v53h-16v-53H412 M413,486h-18v55h18V486L413,486z"/>
	</g>
</g>
<g id="_x31_2">
	<g>
		<g>
			<path class="st0" d="M414,653.5c-5.24,0-9.5-4.26-9.5-9.5v-59c0-5.24,4.26-9.5,9.5-9.5h59c5.24,0,9.5,4.26,9.5,9.5v59
				c0,5.24-4.26,9.5-9.5,9.5H414z"/>
			<path d="M473,576c4.96,0,9,4.04,9,9v59c0,4.96-4.04,9-9,9h-59c-4.96,0-9-4.04-9-9v-59c0-4.96,4.04-9,9-9H473 M473,575h-59
				c-5.52,0-10,4.48-10,10v59c0,5.52,4.48,10,10,10h59c5.52,0,10-4.48,10-10v-59C483,579.48,478.52,575,473,575L473,575z"/>
		</g>
	</g>
	<g>
		<rect x="404.5" y="649.5" class="st0" width="78" height="13"/>
		<path d="M482,650v12h-77v-12H482 M483,649h-79v14h79V649L483,649z"/>
	</g>
	<g>
		<rect x="474.5" y="608.5" class="st0" width="17" height="54"/>
		<path d="M491,609v53h-16v-53H491 M492,608h-18v55h18V608L492,608z"/>
	</g>
	<g>
		<rect x="395.5" y="608.5" class="st0" width="17" height="54"/>
		<path d="M412,609v53h-16v-53H412 M413,608h-18v55h18V608L413,608z"/>
	</g>
</g>
<g id="_x31_1">
	<g>
		<g>
			<path class="st0" d="M301,653.5c-5.24,0-9.5-4.26-9.5-9.5v-59c0-5.24,4.26-9.5,9.5-9.5h59c5.24,0,9.5,4.26,9.5,9.5v59
				c0,5.24-4.26,9.5-9.5,9.5H301z"/>
			<path d="M360,576c4.96,0,9,4.04,9,9v59c0,4.96-4.04,9-9,9h-59c-4.96,0-9-4.04-9-9v-59c0-4.96,4.04-9,9-9H360 M360,575h-59
				c-5.52,0-10,4.48-10,10v59c0,5.52,4.48,10,10,10h59c5.52,0,10-4.48,10-10v-59C370,579.48,365.52,575,360,575L360,575z"/>
		</g>
	</g>
	<g>
		<rect x="291.5" y="649.5" class="st0" width="78" height="13"/>
		<path d="M369,650v12h-77v-12H369 M370,649h-79v14h79V649L370,649z"/>
	</g>
	<g>
		<rect x="361.5" y="608.5" class="st0" width="17" height="54"/>
		<path d="M378,609v53h-16v-53H378 M379,608h-18v55h18V608L379,608z"/>
	</g>
	<g>
		<rect x="282.5" y="608.5" class="st0" width="17" height="54"/>
		<path d="M299,609v53h-16v-53H299 M300,608h-18v55h18V608L300,608z"/>
	</g>
</g>
<g id="_x31_0">
	<g>
		<g>
			<path class="st0" d="M414,776.5c-5.24,0-9.5-4.26-9.5-9.5v-59c0-5.24,4.26-9.5,9.5-9.5h59c5.24,0,9.5,4.26,9.5,9.5v59
				c0,5.24-4.26,9.5-9.5,9.5H414z"/>
			<path d="M473,699c4.96,0,9,4.04,9,9v59c0,4.96-4.04,9-9,9h-59c-4.96,0-9-4.04-9-9v-59c0-4.96,4.04-9,9-9H473 M473,698h-59
				c-5.52,0-10,4.48-10,10v59c0,5.52,4.48,10,10,10h59c5.52,0,10-4.48,10-10v-59C483,702.48,478.52,698,473,698L473,698z"/>
		</g>
	</g>
	<g>
		<rect x="404.5" y="772.5" class="st0" width="78" height="13"/>
		<path d="M482,773v12h-77v-12H482 M483,772h-79v14h79V772L483,772z"/>
	</g>
	<g>
		<rect x="474.5" y="731.5" class="st0" width="17" height="54"/>
		<path d="M491,732v53h-16v-53H491 M492,731h-18v55h18V731L492,731z"/>
	</g>
	<g>
		<rect x="395.5" y="731.5" class="st0" width="17" height="54"/>
		<path d="M412,732v53h-16v-53H412 M413,731h-18v55h18V731L413,731z"/>
	</g>
</g>
<g id="_x39_">
	<g>
		<g>
			<path class="st0" d="M301,775.5c-5.24,0-9.5-4.26-9.5-9.5v-59c0-5.24,4.26-9.5,9.5-9.5h59c5.24,0,9.5,4.26,9.5,9.5v59
				c0,5.24-4.26,9.5-9.5,9.5H301z"/>
			<path d="M360,698c4.96,0,9,4.04,9,9v59c0,4.96-4.04,9-9,9h-59c-4.96,0-9-4.04-9-9v-59c0-4.96,4.04-9,9-9H360 M360,697h-59
				c-5.52,0-10,4.48-10,10v59c0,5.52,4.48,10,10,10h59c5.52,0,10-4.48,10-10v-59C370,701.48,365.52,697,360,697L360,697z"/>
		</g>
	</g>
	<g>
		<rect x="291.5" y="771.5" class="st0" width="78" height="13"/>
		<path d="M369,772v12h-77v-12H369 M370,771h-79v14h79V771L370,771z"/>
	</g>
	<g>
		<rect x="361.5" y="730.5" class="st0" width="17" height="54"/>
		<path d="M378,731v53h-16v-53H378 M379,730h-18v55h18V730L379,730z"/>
	</g>
	<g>
		<rect x="282.5" y="730.5" class="st0" width="17" height="54"/>
		<path d="M299,731v53h-16v-53H299 M300,730h-18v55h18V730L300,730z"/>
	</g>
</g>
<g id="_x38_">
	<g>
		<g>
			<path class="st0" d="M301,887.5c-5.24,0-9.5-4.26-9.5-9.5v-59c0-5.24,4.26-9.5,9.5-9.5h59c5.24,0,9.5,4.26,9.5,9.5v59
				c0,5.24-4.26,9.5-9.5,9.5H301z"/>
			<path d="M360,810c4.96,0,9,4.04,9,9v59c0,4.96-4.04,9-9,9h-59c-4.96,0-9-4.04-9-9v-59c0-4.96,4.04-9,9-9H360 M360,809h-59
				c-5.52,0-10,4.48-10,10v59c0,5.52,4.48,10,10,10h59c5.52,0,10-4.48,10-10v-59C370,813.48,365.52,809,360,809L360,809z"/>
		</g>
	</g>
	<g>
		<rect x="291.5" y="883.5" class="st0" width="78" height="13"/>
		<path d="M369,884v12h-77v-12H369 M370,883h-79v14h79V883L370,883z"/>
	</g>
	<g>
		<rect x="361.5" y="842.5" class="st0" width="17" height="54"/>
		<path d="M378,843v53h-16v-53H378 M379,842h-18v55h18V842L379,842z"/>
	</g>
	<g>
		<rect x="282.5" y="842.5" class="st0" width="17" height="54"/>
		<path d="M299,843v53h-16v-53H299 M300,842h-18v55h18V842L300,842z"/>
	</g>
</g>
<g id="_x37_">
	<g>
		<g>
			<path class="st0" d="M414,887.5c-5.24,0-9.5-4.26-9.5-9.5v-59c0-5.24,4.26-9.5,9.5-9.5h59c5.24,0,9.5,4.26,9.5,9.5v59
				c0,5.24-4.26,9.5-9.5,9.5H414z"/>
			<path d="M473,810c4.96,0,9,4.04,9,9v59c0,4.96-4.04,9-9,9h-59c-4.96,0-9-4.04-9-9v-59c0-4.96,4.04-9,9-9H473 M473,809h-59
				c-5.52,0-10,4.48-10,10v59c0,5.52,4.48,10,10,10h59c5.52,0,10-4.48,10-10v-59C483,813.48,478.52,809,473,809L473,809z"/>
		</g>
	</g>
	<g>
		<rect x="404.5" y="883.5" class="st0" width="78" height="13"/>
		<path d="M482,884v12h-77v-12H482 M483,883h-79v14h79V883L483,883z"/>
	</g>
	<g>
		<rect x="474.5" y="842.5" class="st0" width="17" height="54"/>
		<path d="M491,843v53h-16v-53H491 M492,842h-18v55h18V842L492,842z"/>
	</g>
	<g>
		<rect x="395.5" y="842.5" class="st0" width="17" height="54"/>
		<path d="M412,843v53h-16v-53H412 M413,842h-18v55h18V842L413,842z"/>
	</g>
</g>
<g id="_x36_">
	<g>
		<g>
			<path class="st0" d="M414,999.5c-5.24,0-9.5-4.26-9.5-9.5v-59c0-5.24,4.26-9.5,9.5-9.5h59c5.24,0,9.5,4.26,9.5,9.5v59
				c0,5.24-4.26,9.5-9.5,9.5H414z"/>
			<path d="M473,922c4.96,0,9,4.04,9,9v59c0,4.96-4.04,9-9,9h-59c-4.96,0-9-4.04-9-9v-59c0-4.96,4.04-9,9-9H473 M473,921h-59
				c-5.52,0-10,4.48-10,10v59c0,5.52,4.48,10,10,10h59c5.52,0,10-4.48,10-10v-59C483,925.48,478.52,921,473,921L473,921z"/>
		</g>
	</g>
	<g>
		<rect x="404.5" y="995.5" class="st0" width="78" height="13"/>
		<path d="M482,996v12h-77v-12H482 M483,995h-79v14h79V995L483,995z"/>
	</g>
	<g>
		<rect x="474.5" y="954.5" class="st0" width="17" height="54"/>
		<path d="M491,955v53h-16v-53H491 M492,954h-18v55h18V954L492,954z"/>
	</g>
	<g>
		<rect x="395.5" y="954.5" class="st0" width="17" height="54"/>
		<path d="M412,955v53h-16v-53H412 M413,954h-18v55h18V954L413,954z"/>
	</g>
</g>
<g id="_x35_">
	<g>
		<g>
			<path class="st0" d="M301,999.5c-5.24,0-9.5-4.26-9.5-9.5v-59c0-5.24,4.26-9.5,9.5-9.5h59c5.24,0,9.5,4.26,9.5,9.5v59
				c0,5.24-4.26,9.5-9.5,9.5H301z"/>
			<path d="M360,922c4.96,0,9,4.04,9,9v59c0,4.96-4.04,9-9,9h-59c-4.96,0-9-4.04-9-9v-59c0-4.96,4.04-9,9-9H360 M360,921h-59
				c-5.52,0-10,4.48-10,10v59c0,5.52,4.48,10,10,10h59c5.52,0,10-4.48,10-10v-59C370,925.48,365.52,921,360,921L360,921z"/>
		</g>
	</g>
	<g>
		<rect x="291.5" y="995.5" class="st0" width="78" height="13"/>
		<path d="M369,996v12h-77v-12H369 M370,995h-79v14h79V995L370,995z"/>
	</g>
	<g>
		<rect x="361.5" y="954.5" class="st0" width="17" height="54"/>
		<path d="M378,955v53h-16v-53H378 M379,954h-18v55h18V954L379,954z"/>
	</g>
	<g>
		<rect x="282.5" y="954.5" class="st0" width="17" height="54"/>
		<path d="M299,955v53h-16v-53H299 M300,954h-18v55h18V954L300,954z"/>
	</g>
</g>
<g id="_x34_">
	<g>
		<g>
			<path class="st0" d="M414,1111.5c-5.24,0-9.5-4.26-9.5-9.5v-59c0-5.24,4.26-9.5,9.5-9.5h59c5.24,0,9.5,4.26,9.5,9.5v59
				c0,5.24-4.26,9.5-9.5,9.5H414z"/>
			<path d="M473,1034c4.96,0,9,4.04,9,9v59c0,4.96-4.04,9-9,9h-59c-4.96,0-9-4.04-9-9v-59c0-4.96,4.04-9,9-9H473 M473,1033h-59
				c-5.52,0-10,4.48-10,10v59c0,5.52,4.48,10,10,10h59c5.52,0,10-4.48,10-10v-59C483,1037.48,478.52,1033,473,1033L473,1033z"/>
		</g>
	</g>
	<g>
		<rect x="404.5" y="1107.5" class="st0" width="78" height="13"/>
		<path d="M482,1108v12h-77v-12H482 M483,1107h-79v14h79V1107L483,1107z"/>
	</g>
	<g>
		<rect x="474.5" y="1066.5" class="st0" width="17" height="54"/>
		<path d="M491,1067v53h-16v-53H491 M492,1066h-18v55h18V1066L492,1066z"/>
	</g>
	<g>
		<rect x="395.5" y="1066.5" class="st0" width="17" height="54"/>
		<path d="M412,1067v53h-16v-53H412 M413,1066h-18v55h18V1066L413,1066z"/>
	</g>
</g>
<g id="_x33_">
	<g>
		<g>
			<path class="st0" d="M301,1111.5c-5.24,0-9.5-4.26-9.5-9.5v-59c0-5.24,4.26-9.5,9.5-9.5h59c5.24,0,9.5,4.26,9.5,9.5v59
				c0,5.24-4.26,9.5-9.5,9.5H301z"/>
			<path d="M360,1034c4.96,0,9,4.04,9,9v59c0,4.96-4.04,9-9,9h-59c-4.96,0-9-4.04-9-9v-59c0-4.96,4.04-9,9-9H360 M360,1033h-59
				c-5.52,0-10,4.48-10,10v59c0,5.52,4.48,10,10,10h59c5.52,0,10-4.48,10-10v-59C370,1037.48,365.52,1033,360,1033L360,1033z"/>
		</g>
	</g>
	<g>
		<rect x="291.5" y="1107.5" class="st0" width="78" height="13"/>
		<path d="M369,1108v12h-77v-12H369 M370,1107h-79v14h79V1107L370,1107z"/>
	</g>
	<g>
		<rect x="361.5" y="1066.5" class="st0" width="17" height="54"/>
		<path d="M378,1067v53h-16v-53H378 M379,1066h-18v55h18V1066L379,1066z"/>
	</g>
	<g>
		<rect x="282.5" y="1066.5" class="st0" width="17" height="54"/>
		<path d="M299,1067v53h-16v-53H299 M300,1066h-18v55h18V1066L300,1066z"/>
	</g>
</g>
<g id="_x32_">
	<g>
		<g>
			<path class="st0" d="M417,1223.5c-5.24,0-9.5-4.26-9.5-9.5v-59c0-5.24,4.26-9.5,9.5-9.5h59c5.24,0,9.5,4.26,9.5,9.5v59
				c0,5.24-4.26,9.5-9.5,9.5H417z"/>
			<path d="M476,1146c4.96,0,9,4.04,9,9v59c0,4.96-4.04,9-9,9h-59c-4.96,0-9-4.04-9-9v-59c0-4.96,4.04-9,9-9H476 M476,1145h-59
				c-5.52,0-10,4.48-10,10v59c0,5.52,4.48,10,10,10h59c5.52,0,10-4.48,10-10v-59C486,1149.48,481.52,1145,476,1145L476,1145z"/>
		</g>
	</g>
	<g>
		<rect x="407.5" y="1219.5" class="st0" width="78" height="13"/>
		<path d="M485,1220v12h-77v-12H485 M486,1219h-79v14h79V1219L486,1219z"/>
	</g>
	<g>
		<rect x="477.5" y="1178.5" class="st0" width="17" height="54"/>
		<path d="M494,1179v53h-16v-53H494 M495,1178h-18v55h18V1178L495,1178z"/>
	</g>
	<g>
		<rect x="398.5" y="1178.5" class="st0" width="17" height="54"/>
		<path d="M415,1179v53h-16v-53H415 M416,1178h-18v55h18V1178L416,1178z"/>
	</g>
</g>
<g id="_x31_">
	<g>
		<g>
			<path class="st0" d="M304,1223.5c-5.24,0-9.5-4.26-9.5-9.5v-59c0-5.24,4.26-9.5,9.5-9.5h59c5.24,0,9.5,4.26,9.5,9.5v59
				c0,5.24-4.26,9.5-9.5,9.5H304z"/>
			<path d="M363,1146c4.96,0,9,4.04,9,9v59c0,4.96-4.04,9-9,9h-59c-4.96,0-9-4.04-9-9v-59c0-4.96,4.04-9,9-9H363 M363,1145h-59
				c-5.52,0-10,4.48-10,10v59c0,5.52,4.48,10,10,10h59c5.52,0,10-4.48,10-10v-59C373,1149.48,368.52,1145,363,1145L363,1145z"/>
		</g>
	</g>
	<g>
		<rect x="294.5" y="1219.5" class="st0" width="78" height="13"/>
		<path d="M372,1220v12h-77v-12H372 M373,1219h-79v14h79V1219L373,1219z"/>
	</g>
	<g>
		<rect x="364.5" y="1178.5" class="st0" width="17" height="54"/>
		<path d="M381,1179v53h-16v-53H381 M382,1178h-18v55h18V1178L382,1178z"/>
	</g>
	<g>
		<rect x="285.5" y="1178.5" class="st0" width="17" height="54"/>
		<path d="M302,1179v53h-16v-53H302 M303,1178h-18v55h18V1178L303,1178z"/>
	</g>
</g>
<text transform="matrix(1 0 0 1 139.8569 58.7144)" class="st1 st2">FRONT SIDE</text>
</svg>
